<svg
  width="24"
  height="24"
  viewBox="0 0 24 24"
  fill="none"
  xmlns="http://www.w3.org/2000/svg"
>
  <path
    d="M8.5 21C9.32843 21 10 20.3284 10 19.5V16.5C10 15.6716 9.32843 15 8.5 15C7.67157 15 7 15.6716 7 16.5V19.5C7 20.3284 7.67157 21 8.5 21Z"
    fill="#3E863D"
  />
  <path
    d="M14.5 21C15.3284 21 16 20.3284 16 19.5V16.5C16 15.6716 15.3284 15 14.5 15C13.6716 15 13 15.6716 13 16.5V19.5C13 20.3284 13.6716 21 14.5 21Z"
    fill="#3E863D"
  />
  <path
    fill-rule="evenodd"
    clip-rule="evenodd"
    d="M3 3C1.89543 3 1 3.89543 1 5V19C1 20.1046 1.89543 21 3 21H21C22.1046 21 23 20.1046 23 19V5C23 3.89543 22.1046 3 21 3H3ZM3 4H21C21.5523 4 22 4.44772 22 5V19C22 19.5523 21.5523 20 21 20H3C2.44772 20 2 19.5523 2 19V5C2 4.44772 2.44772 4 3 4ZM8.5 12C9.32843 12 10 11.3284 10 10.5V7.5C10 6.67157 9.32843 6 8.5 6C7.67157 6 7 6.67157 7 7.5V10.5C7 11.3284 7.67157 12 8.5 12ZM14.5 12C15.3284 12 16 11.3284 16 10.5V7.5C16 6.67157 15.3284 6 14.5 6C13.6716 6 13 6.67157 13 7.5V10.5C13 11.3284 13.6716 12 14.5 12Z"
    fill="#3E863D"
  />
</svg>
